<?xml version="1.0" encoding="UTF-8"?>
<!DOCTYPE svg PUBLIC "-//W3C//DTD SVG 1.1//EN" "http://www.w3.org/Graphics/SVG/1.1/DTD/svg11.dtd">
<!-- Creator: CorelDRAW -->
<svg xmlns="http://www.w3.org/2000/svg" xml:space="preserve" width="1.07071in" height="0.920484in" version="1.1" style="shape-rendering:geometricPrecision; text-rendering:geometricPrecision; image-rendering:optimizeQuality; fill-rule:evenodd; clip-rule:evenodd"
viewBox="0 0 408.61 351.28"
 xmlns:xlink="http://www.w3.org/1999/xlink"
 xmlns:xodm="http://www.corel.com/coreldraw/odm/2003">
 <defs>
  <style type="text/css">
   <![CDATA[
    .fil3 {fill:#028633}
    .fil2 {fill:#0D328C}
    .fil1 {fill:#6FB345}
    .fil0 {fill:url(#id0)}
   ]]>
  </style>
  <linearGradient id="id0" gradientUnits="userSpaceOnUse" x1="199.69" y1="28.73" x2="203.07" y2="351.22">
   <stop offset="0" style="stop-opacity:1; stop-color:#0D328C"/>
   <stop offset="1" style="stop-opacity:1; stop-color:#0084D1"/>
  </linearGradient>
 </defs>
 <g id="Layer_x0020_1">
  <metadata id="CorelCorpID_0Corel-Layer"/>
  <g id="_2231403099584">
   <path class="fil0" d="M67.52 99.1zm0 0zm0 0c0.86,-10.29 6.69,-19.26 13.06,-26.38 17.01,-18.99 -21.52,-50.15 -41.3,23.58 -1.36,5.08 -2.97,8.33 -4.13,14.95 -3.49,20.08 -1.83,14.82 -26.89,34.17 -3.71,2.86 -7.54,5.82 -8.16,11.08 -0.75,6.34 2.85,11.42 6.68,13.53 12.73,7.04 19.87,-7.8 27.67,-9.88 3.64,7.59 4.88,16.74 8.15,24.93 3.46,8.67 7.9,15.17 12.13,22.21 4.93,8.19 14.07,23.5 22.98,27.97 13.09,6.56 25.75,-9.61 13.72,-23.96 -16.62,-19.82 -31.53,-43.92 -31.53,-71.5 20.68,-13.85 84.31,-64.27 107.77,-81.77 12.01,-8.96 23.53,-19.29 35.98,-27.63 6.16,1.65 107.71,81.13 116.13,87.41l27.62 20.72c0,24.57 -7.8,40.8 -20.59,59.55 -13.35,19.57 -30.89,36.66 -48.41,52.08 -3.8,3.35 -6.33,6.84 -10.24,10.11l-43.22 38.19c-6.84,6.59 -13.36,14.12 -21.28,19.43 -15.52,-23.17 -59.46,-48.45 -73.04,-87.24 -5.52,-15.77 -4.16,-32.25 4.57,-43.55 0.16,-0.21 0.39,-0.51 0.56,-0.71 3.81,-4.59 8.73,-7.8 14.4,-9.77 15.73,-5.47 27.92,3.03 35.32,15.72 3.33,5.71 4.55,12.46 10.01,16.71 5.8,4.51 13.93,3.46 18.74,-1.43 2.91,-2.96 2.7,-4.63 4.52,-8.2 4.41,-8.63 9.14,-17.95 18.62,-22.09 29.52,-12.89 39.18,27.87 9.19,54.98 -3.99,3.61 -11.28,8.1 -14.6,12.11 -9.13,11.04 3.9,31.52 20.83,18.28 20.81,-16.26 39.99,-38.04 39.97,-66.94 -0.01,-23.07 -13.4,-41.56 -33.85,-46.33 -9.5,-2.21 -13.13,-2.13 -22.92,-0.2 -21.67,4.28 -22.48,13.88 -32.33,21.1 -14.08,-21.03 -47.37,-29.6 -68.96,-16.81 -25.68,15.21 -34.45,32.65 -34.13,65.2 0.38,38.09 32.79,66.53 57.28,91.55 7.98,8.15 16.72,16.11 25.15,24.46 7.85,7.78 17.04,23.81 29.93,12.78 4.86,-4.16 7.06,-7.25 12.55,-11.62l38.92 -36.13c4.42,-4.5 8.05,-6.72 12.71,-11.46l56.69 -55.26c8.65,-10.23 16.93,-20.59 23.61,-32.36 5.87,-10.34 14.32,-26.99 15.44,-40.53 11.45,0.95 13.71,16.31 28.09,10.32 12.59,-5.24 7.7,-18.72 -0.28,-25.41l-29.09 -21.79c-2.42,-1.73 -3.03,-2.53 -5.62,-4.56l-140.85 -107.21c-18.49,-13.87 -19.95,-16.23 -39.24,-1.44 -11.72,8.98 -113.39,87.72 -118.32,89.03z"/>
   <g>
    <path class="fil1" d="M214.9 117.47c-8.25,0.01 -14.44,0 -18.26,-4.89 -3.85,-4.92 -1.5,-11.03 -3.18,-16.65 -12.78,0 -24.3,-2.39 -24.32,10.95 -0.02,12.98 11.7,11.44 24.32,11.44 0,4.67 -0.77,13.27 0.46,17.35 2.53,8.42 17.55,9.67 20.68,-1.31 0.65,-2.28 0.08,-14.68 0.31,-16.9z"/>
    <path class="fil2" d="M193.46 95.93c18.27,0.12 21.44,2.91 21.44,21.54 4.67,0.14 25.48,2.64 24.54,-10.59 0.01,-6.06 -2.86,-8.97 -7.52,-10.49 -3.81,-1.24 -11.08,-0.97 -16.84,-0.97 0,-7.55 2.7,-23.55 -10.22,-24.27 -13.72,-0.77 -11.4,12.18 -11.4,24.77z"/>
    <path class="fil3" d="M214.9 117.47c0,-18.64 -3.18,-21.43 -21.44,-21.54l0 0c-0.29,8.34 -0.83,12.09 3.18,16.65 3.83,4.89 10.02,4.9 18.26,4.89z"/>
   </g>
  </g>
 </g>
</svg>
